<?xml version="1.0" encoding="utf-8"?>
<!-- Generator: Adobe Illustrator 25.4.1, SVG Export Plug-In . SVG Version: 6.00 Build 0)  -->
<svg version="1.1" id="Layer_1" xmlns="http://www.w3.org/2000/svg" xmlns:xlink="http://www.w3.org/1999/xlink" x="0px" y="0px"
	 viewBox="0 0 382.7 269.8" style="enable-background:new 0 0 382.7 269.8;" xml:space="preserve">
<style type="text/css">
	.st0{fill:#FFFFFF;}
	.st1{fill:#858584;}
	.st2{clip-path:url(#SVGID_00000086677516734610285910000014232425581878074517_);fill:#858584;}
	.st3{clip-path:url(#SVGID_00000119102114974022279360000011365591888193846201_);fill:#858584;}
	.st4{clip-path:url(#SVGID_00000117659229871518744030000008839018146584863625_);fill:#858584;}
	.st5{clip-path:url(#SVGID_00000072972294108898850440000004031768666541072554_);fill:#858584;}
	.st6{clip-path:url(#SVGID_00000067915833132865362660000003715831249887468942_);fill:#858584;}
	.st7{clip-path:url(#SVGID_00000034090044764266279570000010390775685469287861_);fill:#FFFFFF;}
</style>
<rect y="0" class="st0" width="382.7" height="241.8"/>
<g>
	<defs>
		<rect id="SVGID_1_" width="382.7" height="269.8"/>
	</defs>
	<clipPath id="SVGID_00000119809684380682539590000005072630533732679327_">
		<use xlink:href="#SVGID_1_"  style="overflow:visible;"/>
	</clipPath>
	<g style="clip-path:url(#SVGID_00000119809684380682539590000005072630533732679327_);">
		<text transform="matrix(1 0 0 1 -38.9766 -57.2755)"><tspan x="0" y="0" style="font-family:'MinionPro-Regular'; font-size:12px; letter-spacing:-1;">T</tspan><tspan x="4.8" y="0" style="font-family:'MinionPro-Regular'; font-size:12px;">o</tspan><tspan x="11.3" y="0" style="font-family:'MinionPro-Regular'; font-size:12px;">p15-y2022-WUR</tspan></text>
	</g>
</g>
<rect y="243.5" class="st0" width="382.7" height="26.3"/>
<polygon class="st1" points="132.9,125.6 136.6,125.6 139.8,136.2 143.3,125.6 146.3,125.6 149.8,136.2 153.1,125.6 156.7,125.6 
	151.3,141.4 148.3,141.4 144.8,131.2 141.2,141.4 138.2,141.4 "/>
<g>
	<defs>
		<rect id="SVGID_00000057119889616680327630000000850175748900680081_" width="382.7" height="269.8"/>
	</defs>
	<clipPath id="SVGID_00000019641735584628804640000003462673459299667081_">
		<use xlink:href="#SVGID_00000057119889616680327630000000850175748900680081_"  style="overflow:visible;"/>
	</clipPath>
	<path style="clip-path:url(#SVGID_00000019641735584628804640000003462673459299667081_);fill:#858584;" d="M170.1,133.5
		L170.1,133.5c0-2.7-2-5-4.7-5c-2.8,0-4.7,2.2-4.7,4.9v0c0,2.7,2,4.9,4.7,4.9C168.2,138.4,170.1,136.2,170.1,133.5 M157,133.5
		L157,133.5c0-4.5,3.5-8.1,8.3-8.1c4.8,0,8.3,3.6,8.3,8.1v0c0,4.5-3.5,8.1-8.3,8.1C160.5,141.6,157,138,157,133.5"/>
	<path style="clip-path:url(#SVGID_00000019641735584628804640000003462673459299667081_);fill:#858584;" d="M182.8,133.2
		c1.7,0,2.6-0.9,2.6-2.2v0c0-1.5-1-2.2-2.7-2.2h-3.4v4.5H182.8z M175.9,125.6h7.2c2,0,3.5,0.6,4.6,1.6c0.9,0.9,1.3,2.1,1.3,3.6v0
		c0,2.5-1.4,4.1-3.4,4.9l3.8,5.6h-4l-3.4-5h-2.7v5h-3.4V125.6z"/>
</g>
<polygon class="st1" points="195,125.6 195,138.2 202.8,138.2 202.8,141.3 191.5,141.3 191.5,125.6 "/>
<g>
	<defs>
		<rect id="SVGID_00000060726265319813638510000012471193520077019282_" width="382.7" height="269.8"/>
	</defs>
	<clipPath id="SVGID_00000130615471889228511490000006268493394703208096_">
		<use xlink:href="#SVGID_00000060726265319813638510000012471193520077019282_"  style="overflow:visible;"/>
	</clipPath>
	<path style="clip-path:url(#SVGID_00000130615471889228511490000006268493394703208096_);fill:#858584;" d="M210.6,138.2
		c2.8,0,4.7-1.9,4.7-4.7v0c0-2.8-1.9-4.7-4.7-4.7H208v9.4H210.6z M204.5,125.6h6.1c4.9,0,8.3,3.4,8.3,7.8v0c0,4.4-3.4,7.8-8.3,7.8
		h-6.1V125.6z"/>
	<path style="clip-path:url(#SVGID_00000130615471889228511490000006268493394703208096_);fill:#858584;" d="M134.9,163.2v-8.9h3.4
		v8.9c0,2.6,1.3,3.9,3.4,3.9s3.4-1.3,3.4-3.8v-9h3.4v8.8c0,4.7-2.7,7.1-6.9,7.1C137.5,170.2,134.9,167.8,134.9,163.2"/>
</g>
<polygon class="st1" points="151.2,154.2 154.4,154.2 161.7,163.9 161.7,154.2 165.1,154.2 165.1,169.9 162.2,169.9 154.6,160 
	154.6,169.9 151.2,169.9 "/>
<rect x="168.1" y="154.2" class="st1" width="3.4" height="15.7"/>
<polygon class="st1" points="173.1,154.2 176.9,154.2 181,165.3 185.1,154.2 188.9,154.2 182.5,170 179.5,170 "/>
<polygon class="st1" points="190.5,154.2 202.3,154.2 202.3,157.3 193.9,157.3 193.9,160.5 201.3,160.5 201.3,163.6 193.9,163.6 
	193.9,166.8 202.4,166.8 202.4,169.9 190.5,169.9 "/>
<g>
	<defs>
		<rect id="SVGID_00000095339699902806519410000015431973989682324639_" width="382.7" height="269.8"/>
	</defs>
	<clipPath id="SVGID_00000008112043691951741430000001032862911993913263_">
		<use xlink:href="#SVGID_00000095339699902806519410000015431973989682324639_"  style="overflow:visible;"/>
	</clipPath>
	<path style="clip-path:url(#SVGID_00000008112043691951741430000001032862911993913263_);fill:#858584;" d="M211.7,161.9
		c1.7,0,2.6-0.9,2.6-2.2v0c0-1.5-1-2.2-2.7-2.2h-3.4v4.5H211.7z M204.8,154.2h7.2c2,0,3.5,0.6,4.6,1.6c0.9,0.9,1.3,2.1,1.3,3.6v0
		c0,2.5-1.4,4.1-3.4,4.9l3.8,5.6h-4l-3.4-5h-2.7v5h-3.4V154.2z"/>
	<path style="clip-path:url(#SVGID_00000008112043691951741430000001032862911993913263_);fill:#858584;" d="M219.6,167.6l2-2.4
		c1.4,1.2,2.9,1.9,4.7,1.9c1.4,0,2.3-0.6,2.3-1.5v0c0-0.9-0.5-1.3-3.2-2c-3.2-0.8-5.2-1.7-5.2-4.8v0c0-2.8,2.3-4.7,5.5-4.7
		c2.3,0,4.2,0.7,5.8,2l-1.8,2.6c-1.4-1-2.8-1.5-4.1-1.5c-1.3,0-2,0.6-2,1.4v0c0,1,0.7,1.4,3.4,2.1c3.2,0.8,5,2,5,4.7v0
		c0,3.1-2.4,4.9-5.8,4.9C223.9,170.1,221.5,169.3,219.6,167.6"/>
</g>
<rect x="234.2" y="154.2" class="st1" width="3.4" height="15.7"/>
<polygon class="st1" points="244.2,157.4 239.4,157.4 239.4,154.2 252.4,154.2 252.4,157.4 247.6,157.4 247.6,169.9 244.2,169.9 "/>
<polygon class="st1" points="259.3,163.7 253.3,154.2 257.3,154.2 261,160.5 264.8,154.2 268.7,154.2 262.7,163.7 262.7,169.9 
	259.3,169.9 "/>
<g>
	<defs>
		<rect id="SVGID_00000033339762826593718220000014852165314382173361_" width="382.7" height="269.8"/>
	</defs>
	<clipPath id="SVGID_00000147925824118203672780000017354727794878673283_">
		<use xlink:href="#SVGID_00000033339762826593718220000014852165314382173361_"  style="overflow:visible;"/>
	</clipPath>
	<path style="clip-path:url(#SVGID_00000147925824118203672780000017354727794878673283_);fill:#858584;" d="M141.8,190.5
		c1.7,0,2.6-0.9,2.6-2.2v0c0-1.5-1-2.2-2.7-2.2h-3.4v4.5H141.8z M134.9,182.9h7.2c2,0,3.5,0.6,4.6,1.6c0.9,0.9,1.3,2.1,1.3,3.6v0
		c0,2.5-1.4,4.1-3.4,4.9l3.8,5.6h-4l-3.4-5h-2.7v5h-3.4V182.9z"/>
</g>
<path class="st1" d="M159.5,192l-2.1-5.1l-2.1,5.1H159.5z M155.9,182.8h3.2l6.7,15.8h-3.6l-1.4-3.5h-6.6l-1.4,3.5h-3.5L155.9,182.8z
	"/>
<polygon class="st1" points="167.3,182.9 170.5,182.9 177.9,192.5 177.9,182.9 181.3,182.9 181.3,198.5 178.3,198.5 170.7,188.6 
	170.7,198.5 167.3,198.5 "/>
<polygon class="st1" points="187.7,182.9 187.7,189.7 194,182.9 198.2,182.9 191.8,189.5 198.5,198.5 194.3,198.5 189.5,191.9 
	187.7,193.8 187.7,198.5 184.2,198.5 184.2,182.9 "/>
<rect x="200.1" y="182.9" class="st1" width="3.4" height="15.7"/>
<polygon class="st1" points="206.5,182.9 209.6,182.9 217,192.5 217,182.9 220.4,182.9 220.4,198.5 217.4,198.5 209.9,188.6 
	209.9,198.5 206.5,198.5 "/>
<g>
	<defs>
		<rect id="SVGID_00000049927145384018563210000015534225256671622796_" width="382.7" height="269.8"/>
	</defs>
	<clipPath id="SVGID_00000140008573976873276360000012846991162365370003_">
		<use xlink:href="#SVGID_00000049927145384018563210000015534225256671622796_"  style="overflow:visible;"/>
	</clipPath>
	<path style="clip-path:url(#SVGID_00000140008573976873276360000012846991162365370003_);fill:#858584;" d="M222.6,190.8
		L222.6,190.8c0-4.5,3.5-8.1,8.2-8.1c2.8,0,4.5,0.8,6.2,2.1l-2.2,2.6c-1.2-1-2.3-1.6-4.1-1.6c-2.5,0-4.5,2.2-4.5,4.9v0
		c0,2.9,2,5,4.7,5c1.3,0,2.4-0.3,3.2-0.9v-2.2h-3.5v-3h6.8v6.8c-1.6,1.4-3.8,2.5-6.7,2.5C226,198.8,222.6,195.4,222.6,190.8"/>
	<path style="clip-path:url(#SVGID_00000140008573976873276360000012846991162365370003_);fill:#858584;" d="M239.2,196.3l2-2.4
		c1.4,1.2,2.9,1.9,4.7,1.9c1.4,0,2.3-0.6,2.3-1.5v0c0-0.9-0.5-1.3-3.2-2c-3.2-0.8-5.2-1.7-5.2-4.8v0c0-2.8,2.3-4.7,5.5-4.7
		c2.3,0,4.2,0.7,5.8,2l-1.8,2.6c-1.4-1-2.8-1.5-4.1-1.5c-1.3,0-2,0.6-2,1.4v0c0,1,0.7,1.4,3.4,2.1c3.2,0.8,5,2,5,4.7v0
		c0,3.1-2.4,4.9-5.8,4.9C243.5,198.8,241.1,197.9,239.2,196.3"/>
</g>
<rect x="40.5" y="121.6" class="st1" width="80.9" height="80.9"/>
<g>
	<defs>
		<rect id="SVGID_00000121984250355380058130000006618374841525937027_" width="382.7" height="269.8"/>
	</defs>
	<clipPath id="SVGID_00000152250386796719723250000006354852804952125615_">
		<use xlink:href="#SVGID_00000121984250355380058130000006618374841525937027_"  style="overflow:visible;"/>
	</clipPath>
	<path style="clip-path:url(#SVGID_00000152250386796719723250000006354852804952125615_);fill:#FFFFFF;" d="M99.3,157.3
		c-5.5-1.4-6.8-2.1-6.8-4.1v-0.1c0-1.5,1.4-2.8,4.1-2.8c2.7,0,5.4,1.2,8.2,3.1l3.6-5.2c-3.2-2.6-7.1-4-11.7-4c-6.4,0-11,3.8-11,9.5
		v0.1c0,6.3,4.1,8,10.5,9.6c5.3,1.4,6.4,2.3,6.4,4v0.1c0,1.8-1.7,3-4.6,3c-3.6,0-6.6-1.4-9.4-3.8c0,0-0.1-0.1-0.1-0.1
		c-0.1,0-0.4-0.4-0.7-0.7c0,0,0,0,0,0l0,0c-0.2-0.2-0.3-0.3-0.3-0.4l0,0c-0.6,2.2-1.6,4.3-2.9,6.1v0c0.3,0.2,0.5,0.4,0.8,0.7l0,0
		l0,0c3.6,2.9,8.1,4.4,12.6,4.4c6.8,0,11.6-3.5,11.6-9.8v-0.1C109.3,161.3,105.7,159,99.3,157.3"/>
	<path style="clip-path:url(#SVGID_00000152250386796719723250000006354852804952125615_);fill:#FFFFFF;" d="M92.1,181.7l-17-13.8
		c-1.8,1.6-4.1,2.5-6.6,2.5c-5.5,0-9.9-4.4-9.9-9.9c0-5.5,4.4-9.9,9.9-9.9c5.5,0,9.9,4.4,9.9,9.9c0,1.9-0.5,3.6-1.4,5.1l5,4.1
		c1.8-2.6,2.9-5.8,2.9-9.2c0-9-7.3-16.3-16.3-16.3s-16.3,7.3-16.3,16.3c0,9,7.3,16.3,16.3,16.3c2.7,0,5.2-0.7,7.5-1.8l15.6,7.4
		L92.1,181.7z"/>
</g>
<rect x="230.5" y="121.6" class="st1" width="111.7" height="22.5"/>
<rect x="280.7" y="150.8" class="st1" width="61.5" height="22.5"/>
<rect x="263.9" y="180" class="st1" width="78.3" height="22.5"/>
<g>
	<path class="st1" d="M48.5,60.8V41.4h-8V37h20.9v4.3h-8v19.4H48.5z"/>
	<path class="st1" d="M74.4,61.2c-1.8,0-3.4-0.3-4.9-0.9c-1.5-0.6-2.9-1.5-4-2.6c-1.1-1.1-2-2.4-2.7-3.9c-0.6-1.5-1-3.1-1-4.8
		c0-1.7,0.3-3.3,1-4.8c0.6-1.5,1.5-2.8,2.7-3.9c1.1-1.1,2.5-2,4-2.6c1.5-0.6,3.2-0.9,4.9-0.9c1.7,0,3.4,0.3,4.9,0.9
		c1.5,0.6,2.9,1.5,4,2.6c1.1,1.1,2,2.4,2.7,3.9c0.6,1.5,1,3.1,1,4.8c0,1.7-0.3,3.3-1,4.8c-0.6,1.5-1.5,2.8-2.7,3.9
		c-1.1,1.1-2.5,2-4,2.6C77.8,60.9,76.2,61.2,74.4,61.2z M74.4,56.7c1.1,0,2-0.2,3-0.6c0.9-0.4,1.7-0.9,2.4-1.6
		c0.7-0.7,1.2-1.5,1.6-2.5c0.4-1,0.6-2,0.6-3.1c0-1.1-0.2-2.2-0.6-3.1c-0.4-0.9-0.9-1.7-1.6-2.4c-0.7-0.7-1.5-1.2-2.4-1.6
		c-0.9-0.4-1.9-0.6-2.9-0.6c-1.1,0-2.1,0.2-3,0.6s-1.7,0.9-2.4,1.6c-0.7,0.7-1.2,1.5-1.6,2.4c-0.4,0.9-0.6,1.9-0.6,3
		c0,1.1,0.2,2.2,0.6,3.1c0.4,1,0.9,1.8,1.6,2.5c0.7,0.7,1.5,1.2,2.4,1.6C72.4,56.5,73.4,56.7,74.4,56.7z"/>
	<path class="st1" d="M90.3,60.8V37h11.9c1.6,0,2.9,0.3,4.1,1c1.2,0.6,2.1,1.5,2.8,2.6s1,2.4,1,3.9c0,1.4-0.3,2.7-1,3.8
		c-0.7,1.1-1.6,2-2.8,2.6c-1.2,0.6-2.6,1-4.1,1h-7v9H90.3z M95.3,47.8h6.4c1.1,0,1.9-0.3,2.6-0.9c0.6-0.6,1-1.4,1-2.3
		c0-1-0.3-1.8-1-2.4c-0.6-0.6-1.5-0.9-2.6-0.9h-6.4V47.8z"/>
	<path class="st1" d="M123.5,60.8v-19l-4.7,1.9v-4l6.3-2.6h3v23.8H123.5z"/>
	<path class="st1" d="M139.6,61.2c-3.3,0-6.1-1.1-8.5-3.2l2.7-3.1c1,0.9,2,1.5,2.9,1.9c1,0.4,2,0.6,3.1,0.6c0.9,0,1.7-0.2,2.4-0.5
		c0.7-0.3,1.2-0.8,1.6-1.4c0.4-0.6,0.6-1.3,0.6-2.2c0-1.2-0.4-2.1-1.3-2.9c-0.9-0.7-2-1.1-3.4-1.1c-0.7,0-1.5,0.1-2.2,0.3
		c-0.7,0.2-1.4,0.5-2.2,0.9l-3.1-0.9l0.6-12.5h15v3.8h-11.2l-0.3,6.1c0.8-0.4,1.6-0.7,2.4-0.9c0.8-0.2,1.6-0.3,2.5-0.3
		c1.6,0,3,0.3,4.2,0.9c1.2,0.6,2.1,1.4,2.8,2.5c0.7,1.1,1,2.4,1,3.8c0,1.6-0.4,3-1.2,4.2c-0.8,1.2-1.9,2.2-3.3,2.9
		C143.1,60.8,141.5,61.2,139.6,61.2z"/>
	<path class="st1" d="M162.1,61.2c-2.1,0-3.9-0.5-5.5-1.5c-1.6-1-2.8-2.5-3.6-4.3c-0.9-1.8-1.3-4-1.3-6.4c0-2.4,0.4-4.6,1.3-6.4
		s2.1-3.3,3.6-4.3c1.6-1,3.4-1.5,5.5-1.5c2.1,0,3.9,0.5,5.4,1.5c1.6,1,2.8,2.5,3.7,4.3c0.9,1.8,1.3,4,1.3,6.4c0,2.4-0.4,4.6-1.3,6.4
		c-0.9,1.8-2.1,3.3-3.7,4.3C166,60.7,164.2,61.2,162.1,61.2z M162.1,57.1c1.2,0,2.2-0.3,3.1-1c0.9-0.7,1.6-1.6,2.1-2.9
		c0.5-1.2,0.7-2.7,0.7-4.4c0-1.7-0.2-3.2-0.7-4.4c-0.5-1.2-1.2-2.2-2.1-2.8c-0.9-0.7-1.9-1-3.1-1c-1.2,0-2.3,0.3-3.2,1
		c-0.9,0.7-1.6,1.6-2,2.8s-0.7,2.7-0.7,4.4c0,1.7,0.2,3.1,0.7,4.4c0.5,1.2,1.2,2.2,2,2.9C159.8,56.8,160.9,57.1,162.1,57.1z"/>
</g>
<g>
	<path class="st1" d="M297.1,58.2v-1.2l4.7-5c0.3-0.3,0.6-0.6,0.7-0.9c0.2-0.3,0.3-0.5,0.4-0.8c0.1-0.2,0.1-0.5,0.1-0.7
		c0-0.5-0.2-1-0.6-1.3c-0.4-0.3-0.9-0.5-1.6-0.5c-0.5,0-1,0.1-1.5,0.3s-1,0.6-1.5,1.1l-0.9-1.1c0.6-0.6,1.3-1,1.9-1.3
		c0.7-0.3,1.3-0.4,2-0.4c0.7,0,1.4,0.1,1.9,0.4c0.6,0.3,1,0.6,1.3,1.1s0.5,1,0.5,1.6c0,0.4,0,0.7-0.1,1c-0.1,0.3-0.3,0.7-0.5,1
		c-0.2,0.4-0.6,0.8-1,1.2l-3.8,4l5.7,0v1.4H297.1z"/>
	<path class="st1" d="M312.6,58.4c-0.9,0-1.8-0.2-2.5-0.8s-1.3-1.2-1.7-2.1c-0.4-0.9-0.6-1.9-0.6-3.1c0-1.2,0.2-2.2,0.6-3.1
		s1-1.6,1.7-2.1c0.7-0.5,1.6-0.8,2.5-0.8c1,0,1.8,0.3,2.5,0.8c0.7,0.5,1.3,1.2,1.7,2.1c0.4,0.9,0.6,1.9,0.6,3.1
		c0,1.2-0.2,2.2-0.6,3.1c-0.4,0.9-1,1.6-1.7,2.1S313.5,58.4,312.6,58.4z M312.6,57c0.7,0,1.2-0.2,1.7-0.6c0.5-0.4,0.9-0.9,1.1-1.6
		s0.4-1.5,0.4-2.4c0-0.9-0.1-1.7-0.4-2.4s-0.6-1.2-1.1-1.6c-0.5-0.4-1.1-0.6-1.7-0.6c-0.6,0-1.2,0.2-1.7,0.6
		c-0.5,0.4-0.9,0.9-1.1,1.6s-0.4,1.5-0.4,2.4c0,0.9,0.1,1.7,0.4,2.4s0.6,1.2,1.1,1.6C311.3,56.8,311.9,57,312.6,57z"/>
	<path class="st1" d="M320.2,58.2v-1.2l4.7-5c0.3-0.3,0.6-0.6,0.7-0.9c0.2-0.3,0.3-0.5,0.4-0.8c0.1-0.2,0.1-0.5,0.1-0.7
		c0-0.5-0.2-1-0.6-1.3c-0.4-0.3-0.9-0.5-1.6-0.5c-0.5,0-1,0.1-1.5,0.3s-1,0.6-1.5,1.1l-0.9-1.1c0.6-0.6,1.3-1,1.9-1.3
		c0.7-0.3,1.3-0.4,2-0.4c0.7,0,1.4,0.1,1.9,0.4c0.6,0.3,1,0.6,1.3,1.1s0.5,1,0.5,1.6c0,0.4,0,0.7-0.1,1c-0.1,0.3-0.3,0.7-0.5,1
		c-0.2,0.4-0.6,0.8-1,1.2l-3.8,4l5.7,0v1.4H320.2z"/>
	<path class="st1" d="M331,58.2v-1.2l4.7-5c0.3-0.3,0.6-0.6,0.7-0.9c0.2-0.3,0.3-0.5,0.4-0.8c0.1-0.2,0.1-0.5,0.1-0.7
		c0-0.5-0.2-1-0.6-1.3c-0.4-0.3-0.9-0.5-1.6-0.5c-0.5,0-1,0.1-1.5,0.3s-1,0.6-1.5,1.1l-0.9-1.1c0.6-0.6,1.3-1,1.9-1.3
		c0.7-0.3,1.3-0.4,2-0.4c0.7,0,1.4,0.1,1.9,0.4c0.6,0.3,1,0.6,1.3,1.1s0.5,1,0.5,1.6c0,0.4,0,0.7-0.1,1c-0.1,0.3-0.3,0.7-0.5,1
		c-0.2,0.4-0.6,0.8-1,1.2l-3.8,4l5.7,0v1.4H331z"/>
</g>
</svg>
